<svg width="87" height="115" viewBox="0 0 87 115" fill="none" xmlns="http://www.w3.org/2000/svg">
<path d="M45.4208 112.985C37.0903 113.453 34.2289 102.95 33.6082 98.3464C32.5151 90.225 31.5002 85.1059 27.1085 80.5896C21.3388 74.6537 15.3544 65.8134 16.2913 57.6774C17.9465 43.2969 26.925 32.7539 42.7663 32.2202C72.1768 31.2291 73.1059 57.4378 70.0727 64.844C67.0396 72.2503 59.076 79.4823 58.3148 82.8332C57.5535 86.1842 56.3785 101.117 54.5516 105.495C53.318 108.45 51.6784 112.636 45.4208 112.988V112.985Z" fill="white" stroke="#161616" stroke-width="2.17831" stroke-linecap="round" stroke-linejoin="round"/>
<path d="M44.9253 100.685C40.4438 78.5205 25.3872 59.66 33.87 55.2126C42.3528 50.7652 45.7451 104.127 45.7451 104.127C45.7451 104.127 40.8108 52.4861 50.0626 52.4861C59.3144 52.4861 43.7113 104.559 43.7113 104.559" stroke="#1E4B64" stroke-width="2.17831" stroke-linecap="round" stroke-linejoin="round"/>
<path d="M56.9522 92.8608C56.3119 97.8346 55.5234 103.157 54.5514 105.488C53.3178 108.443 51.6782 112.629 45.4206 112.981C37.0901 113.449 34.2286 102.946 33.6079 98.3429C33.3776 96.6329 33.1512 95.0536 32.8975 93.5869C32.8975 93.5869 40.295 96.2844 45.6236 96.0883C50.9521 95.8923 56.9522 92.8572 56.9522 92.8572V92.8608Z" fill="#C7D5D9" stroke="#161616" stroke-width="2.17831" stroke-linecap="round" stroke-linejoin="round"/>
<path d="M9.45999 43.8308L2 28.5318L20.3514 31.556L23.5524 9.06136L37.8048 23.5979L48.3683 2L53.7515 24.4947L73.9884 11.0255L72.6962 33.6944L85.434 38.316L78.4581 43.9688" stroke="#161616" stroke-width="2.17831" stroke-linecap="round" stroke-linejoin="round"/>
<path d="M34.2134 101.429C36.9772 103.615 49.7892 105.662 55.473 101.429" stroke="#161616" stroke-width="2.17831" stroke-linecap="round" stroke-linejoin="round"/>
</svg>
