<svg width="20" height="20" viewBox="0 0 20 20" fill="none" xmlns="http://www.w3.org/2000/svg">
<path fill-rule="evenodd" clip-rule="evenodd" d="M9.75 0C4.365 0 0 4.365 0 9.75C0 15.135 4.365 19.5 9.75 19.5C15.135 19.5 19.5 15.135 19.5 9.75C19.5 4.365 15.135 0 9.75 0ZM7.125 6C6.585 6 6.297 6.419 6.189 6.634C6.0607 6.90445 5.99604 7.20069 6 7.5C6 7.798 6.059 8.105 6.189 8.366C6.297 8.581 6.584 9 7.125 9C7.665 9 7.953 8.581 8.061 8.366C8.191 8.106 8.25 7.798 8.25 7.5C8.25 7.202 8.191 6.895 8.061 6.634C7.953 6.419 7.666 6 7.125 6ZM11.439 6.634C11.547 6.419 11.834 6 12.375 6C12.915 6 13.203 6.419 13.311 6.634C13.441 6.894 13.5 7.202 13.5 7.5C13.5 7.798 13.441 8.105 13.311 8.366C13.203 8.581 12.916 9 12.375 9C11.835 9 11.547 8.581 11.439 8.366C11.3107 8.09555 11.246 7.79931 11.25 7.5C11.25 7.202 11.309 6.895 11.439 6.634ZM13.462 13.462C13.5357 13.3933 13.5948 13.3105 13.6358 13.2185C13.6768 13.1265 13.6988 13.0272 13.7006 12.9265C13.7024 12.8258 13.6838 12.7258 13.6461 12.6324C13.6084 12.539 13.5523 12.4542 13.481 12.383C13.4098 12.3117 13.325 12.2556 13.2316 12.2179C13.1382 12.1802 13.0382 12.1616 12.9375 12.1634C12.8368 12.1652 12.7375 12.1872 12.6455 12.2282C12.5535 12.2692 12.4707 12.3283 12.402 12.402C12.0538 12.7503 11.6403 13.0266 11.1853 13.2152C10.7303 13.4037 10.2425 13.5007 9.75 13.5007C9.25746 13.5007 8.76974 13.4037 8.31471 13.2152C7.85967 13.0266 7.44623 12.7503 7.098 12.402C6.95582 12.2695 6.76778 12.1974 6.57348 12.2008C6.37918 12.2043 6.19379 12.283 6.05638 12.4204C5.91897 12.5578 5.84025 12.7432 5.83683 12.9375C5.8334 13.1318 5.90552 13.3198 6.038 13.462C7.02254 14.4464 8.35777 14.9994 9.75 14.9994C11.1422 14.9994 12.4775 14.4464 13.462 13.462Z" fill="black"/>
</svg>
