<svg width="128" height="100" viewBox="0 0 128 100" fill="none" xmlns="http://www.w3.org/2000/svg">
<path d="M76.6284 1.97957L36.6001 6.88698C32.1878 7.42793 29.0526 11.4175 29.5975 15.7979L39.0224 91.5644C39.5673 95.9448 43.586 99.0573 47.9983 98.5163L88.0266 93.6089C92.4389 93.068 95.5741 89.0784 95.0292 84.698L85.6043 8.93152C85.0594 4.55111 81.0407 1.43862 76.6284 1.97957Z" fill="#1E4B64" stroke="#161616" stroke-width="2.13206" stroke-linecap="round" stroke-linejoin="round"/>
<path d="M84.6911 9.70209L30.6665 16.3254L39.8708 90.318L93.8954 83.6947L84.6911 9.70209Z" fill="white"/>
<path d="M29.7798 17.2077C48.6466 13.8674 67.3202 11.5399 85.7861 10.3389" stroke="#161616" stroke-width="2.13206" stroke-linecap="round" stroke-linejoin="round"/>
<path d="M38.8384 89.9928C57.6515 88.8628 76.3215 86.5744 94.8447 83.124" stroke="#161616" stroke-width="2.13206" stroke-linecap="round" stroke-linejoin="round"/>
<path d="M64.7998 70.1646C59.6062 57.2727 55.1033 53.3959 42.5791 50.8481C54.1011 45.3509 57.5158 40.504 59.395 26.7451C64.5922 39.637 69.0915 43.5138 81.6157 46.0616C70.0937 51.5588 66.679 56.4056 64.7998 70.1646Z" fill="#1E4B64"/>
<path d="M59.882 30.6221C61.8364 34.9218 63.9804 38.3935 66.9083 40.9804C70.0617 43.7663 73.8702 45.3156 78.4518 46.4491C74.2854 48.6523 70.9709 51.0757 68.5942 54.5403C66.3893 57.7562 65.158 61.6401 64.3168 66.2844C62.3625 61.9848 60.2185 58.5131 57.2906 55.9262C54.1371 53.1403 50.3287 51.591 45.7471 50.4574C49.9135 48.2543 53.228 45.8309 55.6047 42.3663C57.8096 39.1504 59.0409 35.2665 59.882 30.6221ZM59.2055 24.4854C58.8905 24.4854 58.5791 24.6915 58.5326 25.0752C56.6856 40.0885 53.6038 44.5658 41.2371 50.3011C40.5785 50.6067 40.7002 51.5661 41.4125 51.7047C54.8136 54.2809 58.9013 57.8806 64.3741 71.9948C64.4887 72.2862 64.7428 72.4248 64.9969 72.4248C65.3119 72.4248 65.6233 72.2187 65.6698 71.8349C67.5168 56.8216 70.5986 52.3443 82.9654 46.6091C83.624 46.3035 83.5023 45.344 82.79 45.2054C69.3888 42.6292 65.3012 39.0296 59.8283 24.9153C59.7138 24.6239 59.4597 24.4854 59.2055 24.4854Z" fill="#161616"/>
<path d="M4.60596 29.0442L26.8231 41.7371" stroke="#161616" stroke-width="2.13206" stroke-linecap="round" stroke-linejoin="round"/>
<path d="M2 56.1L26.8229 52.9978" stroke="#161616" stroke-width="2.13206" stroke-linecap="round" stroke-linejoin="round"/>
<path d="M8.66846 80.722L26.823 64.998" stroke="#161616" stroke-width="2.13206" stroke-linecap="round" stroke-linejoin="round"/>
<path d="M97.8662 35.3906L117.871 20.3738" stroke="#161616" stroke-width="2.13206" stroke-linecap="round" stroke-linejoin="round"/>
<path d="M98.9077 47.412L126 43.4819" stroke="#161616" stroke-width="2.13206" stroke-linecap="round" stroke-linejoin="round"/>
<path d="M99.9497 57.7561L124.959 66.86" stroke="#161616" stroke-width="2.13206" stroke-linecap="round" stroke-linejoin="round"/>
</svg>
