<svg width="130" height="88" viewBox="0 0 130 88" fill="none" xmlns="http://www.w3.org/2000/svg">
<path d="M2.35774 2.29249C0.795035 23.7094 4.85814 85.4702 4.85814 85.4702C4.85814 85.4702 123.034 87.3319 126.472 85.4702C129.91 83.6086 126.472 2.29249 126.472 2.29249C83.5639 1.92015 42.0349 1.88525 2.35774 2.29249Z" fill="white" stroke="#161616" stroke-width="2.32708" stroke-linecap="round" stroke-linejoin="round"/>
<path d="M16.5981 17.6744C18.6803 17.6744 20.3682 15.9988 20.3682 13.9317C20.3682 11.8646 18.6803 10.189 16.5981 10.189C14.516 10.189 12.8281 11.8646 12.8281 13.9317C12.8281 15.9988 14.516 17.6744 16.5981 17.6744Z" stroke="#161616" stroke-width="2.32708" stroke-linecap="round" stroke-linejoin="round"/>
<path d="M32.9869 17.6744C35.069 17.6744 36.7569 15.9988 36.7569 13.9317C36.7569 11.8646 35.069 10.189 32.9869 10.189C30.9048 10.189 29.2168 11.8646 29.2168 13.9317C29.2168 15.9988 30.9048 17.6744 32.9869 17.6744Z" stroke="#161616" stroke-width="2.32708" stroke-linecap="round" stroke-linejoin="round"/>
<path d="M49.3761 17.6744C51.4582 17.6744 53.146 15.9988 53.146 13.9317C53.146 11.8646 51.4582 10.189 49.3761 10.189C47.2939 10.189 45.606 11.8646 45.606 13.9317C45.606 15.9988 47.2939 17.6744 49.3761 17.6744Z" stroke="#161616" stroke-width="2.32708" stroke-linecap="round" stroke-linejoin="round"/>
<path d="M112.818 15.9097L77.7822 62.5483L85.3458 20.4553L42.6759 70.8444L45.9967 36.6595L16.2231 73.8114" stroke="#1E4B64" stroke-width="6.20556" stroke-linecap="round" stroke-linejoin="round"/>
<path d="M96.8901 21.6265L112.818 15.2581L112.58 31.5515" stroke="#1E4B64" stroke-width="6.20556" stroke-linecap="round" stroke-linejoin="round"/>
</svg>
